# xmcd
#
# Track frame offsets:
#	150
#	12012
#	26937
#	42012
#	60687
#	76587
#	88887
#	99162
#	111687
#	125787
#	136137
#	150162
#	174387
#	189312
#	202287
#	213687
#	230937
#	239337
#
# Disc length: 3335 seconds
#
# Revision: 1
# Processed by: cddbd v1.4PL0 Copyright (c) Steve Scherf et al.
# Submitted via: audiograbber 1.81.02
#
DISCID=f80d0512
DTITLE=Various Artist - Good Time Country Disc 2
DYEAR=1997
DGENRE=Country
TTITLE0=George Jones - White Lightin'
TTITLE1=Cledus T. Judd - Cledus Went Down to Georgia
TTITLE2=Pinkard and Bowden - Mama, She's Lazy
TTITLE3=Cledus Maggard and The Citizen's Band - The White Knight
TTITLE4=Elmo and Patsy - Grandma Got Run Over by a Reindeer
TTITLE5=Henhouse Five Plus Too - In The Mood
TTITLE6=Sheb Wooley - The Purple People Eater
TTITLE7=Lonzo and Oscar - I'm My Own Grandpa
TTITLE8=Jim Stafford - Spiders and Snakes
TTITLE9=Jerry Reed - When You're Hot, You're Hot
TTITLE10=The Geezinslaw Brothers - Help, I'm White and I Can't Get Down
TTITLE11=The Charlie Daniels Band - Uneasy Rider
TTITLE12=Ray Stevens - The Streak
TTITLE13=Jack Blanchard and Misty Morgan - Tennessee Bird Walk
TTITLE14=Leroy Pullins - I'm A Nut
TTITLE15=C.W. McCall - Convoy
TTITLE16=Roger Miller - Dang Me
TTITLE17=Sheb Wooley - That's My Pa
EXTD=
EXTT0=
EXTT1=
EXTT2=
EXTT3=
EXTT4=
EXTT5=
EXTT6=
EXTT7=
EXTT8=
EXTT9=
EXTT10=
EXTT11=
EXTT12=
EXTT13=
EXTT14=
EXTT15=
EXTT16=
EXTT17=
PLAYORDER=
